<?xml version="1.0" encoding="UTF-8"?>
<svg width="147px" height="44px" viewBox="0 0 147 44" version="1.1" xmlns="http://www.w3.org/2000/svg" xmlns:xlink="http://www.w3.org/1999/xlink">
    <!-- Generator: Sketch 52.2 (67145) - http://www.bohemiancoding.com/sketch -->
    <title>qingyoulogo-text</title>
    <desc>Created with Sketch.</desc>
    <defs>
        <linearGradient x1="23.3610973%" y1="104.381356%" x2="81.9935904%" y2="4.64118023%" id="linearGradient-1">
            <stop stop-color="#A2DD42" offset="0%"></stop>
            <stop stop-color="#82D13A" offset="0%"></stop>
            <stop stop-color="#90D240" offset="12%"></stop>
            <stop stop-color="#B8D552" offset="51%"></stop>
            <stop stop-color="#D1D75D" offset="81%"></stop>
            <stop stop-color="#DAD861" offset="100%"></stop>
        </linearGradient>
    </defs>
    <g id="Page-1" stroke="none" stroke-width="1" fill="none" fill-rule="evenodd">
        <g id="Desktop-HD" transform="translate(-261.000000, -15.000000)">
            <g id="Group-15" transform="translate(225.000000, -6.000000)">
                <g id="nav-copy">
                    <g id="qingyoulogo-text" transform="translate(36.000000, 21.000000)">
                        <g id="logo/qingyou">
                            <g id="logo.qingyou">
                                <g id="资源-6">
                                    <path d="M26.3736264,10.5359396 C29.7084197,10.9581988 34.1745726,10.2424632 34.6488543,10.0109017 C35.123136,9.77934014 36.4064139,9.3137405 37.6896918,8.27728597 C38.9729697,7.24083145 40.3649371,5.74620706 39.9128873,5.40567541 C39.4608376,5.06514376 38.0602244,4.2416763 35.0354433,4.49057398 C32.0106622,4.73947167 30.0777172,5.2867989 28.4115556,6.90649128 C27.4033982,7.89861192 26.6967207,9.15716864 26.3736264,10.5359396 Z" id="Path" fill="#336633"></path>
                                    <path d="M26.1201194,10.2222222 C29.3686679,9.24083859 33.1484804,6.77498831 33.4856526,6.36979582 C33.8228248,5.96460334 34.7870627,5.02534981 35.5012208,3.56938294 C36.2153789,2.11341606 36.8275144,0.198974505 36.2614135,0.077540672 C35.6953125,-0.0438931612 34.0442884,-0.216130945 31.3755268,1.24479242 C28.7067652,2.70571577 27.1789148,3.98572751 26.37642,6.12321079 C25.8924708,7.43563272 25.8033998,8.86014269 26.1201194,10.2222222 Z" id="Path" fill="#5E8445"></path>
                                    <path d="M6.85621451,14.8676708 C3.52732163,18.4246852 1.09323912,22.5537451 0.230651832,27.406052 C-0.714971873,32.7283435 1.29277439,37.0123849 5.41361164,40.3287369 C12.2300341,45.8009698 24.0224451,45.1860839 29.6552888,38.2799571 C33.0126867,34.1634973 33.2332909,28.955867 32.804476,23.8200574 C32.3880545,18.8291491 31.4411915,14.0965434 27.7975038,10.4639283 C21.036852,3.72034311 10.7043949,10.0141039 5.71353423,16.0810626 C6.16093942,15.5367373 6.70501387,14.8210504 7.26891791,14.4102864 C7.11776087,14.5494722 6.97960346,14.7025871 6.85621451,14.8676708 C5.12980059,16.7123287 8.71028143,12.8377912 6.85621451,14.8676708 Z" id="Path" fill="url(#linearGradient-1)"></path>
                                    <path d="M32.5274725,20.6126341 C32.4352526,19.7124633 30.3976901,18.3577757 26.8260363,18.0197368 C23.9506154,17.740886 21.0521128,17.8297831 18.1984859,18.284344 C12.180511,19.2085701 4.8353164,20.5189455 1.16645777,26.0415129 C0.27541364,27.3835398 0.176962611,27.2797226 0,28.8888889 C0.375110886,21.1190594 6.50150662,17.7323405 12.6939518,15.3470776 C16.9634863,13.7011955 21.6505031,12.8149513 26.1530799,12.1211487 C26.9381957,11.9945424 28.4423779,11.7932383 29.2374634,11.7628528 C29.2374634,11.7628528 28.8511366,10.6297263 30.4899101,13.6619475 C31.6376746,15.8015942 32.2782294,18.0805079 32.5274725,20.6126341 Z" id="Path" fill="#FFFFFF"></path>
                                    <path d="M32.967033,29.6824687 C32.6782307,31.9743442 32.4952395,33.3921149 31.2927265,35.5555556 C24.8805682,27.4803729 8.17360339,19.7443579 0,28.9467742 C6.59763904,17.8864175 22.176781,24.0512882 31.5541423,27.7447241 C31.2242604,27.6125485 32.6969032,28.1636959 32.9632985,28.3133287" id="Path" fill="#FFFFFF"></path>
                                </g>
                            </g>
                        </g>
                        <g id="Group" transform="translate(49.000000, 7.000000)">
                            <path d="M1,1.74 L8.04,1.74 L8.04,0.6 L9.96,0.6 L9.96,1.74 L17.04,1.74 L17.04,3.3 L9.96,3.3 L9.96,4.28 L16.28,4.28 L16.28,5.78 L9.96,5.78 L9.96,6.82 L17.88,6.82 L17.88,8.4 L0.12,8.4 L0.12,6.82 L8.04,6.82 L8.04,5.78 L1.76,5.78 L1.76,4.28 L8.04,4.28 L8.04,3.3 L1,3.3 L1,1.74 Z M13.54,18.94 L11.36,18.94 L10.9,17.26 L12.98,17.36 C13.52,17.36 13.8,17.1 13.8,16.58 L13.8,15.9 L4.2,15.9 L4.2,19.06 L2.34,19.06 L2.34,9.28 L15.66,9.28 L15.66,16.98 C15.66,18.28 14.94,18.94 13.54,18.94 Z M4.2,14.48 L13.8,14.48 L13.8,13.38 L4.2,13.38 L4.2,14.48 Z M4.2,11.94 L13.8,11.94 L13.8,10.82 L4.2,10.82 L4.2,11.94 Z M37.64,4.06 L37.64,19.1 L35.82,19.1 L35.82,18.06 L29.08,18.06 L29.08,19.1 L27.26,19.1 L27.26,4.06 L31.5,4.06 L31.5,0.66 L33.36,0.66 L33.36,4.06 L37.64,4.06 Z M29.08,16.3 L31.5,16.3 L31.5,11.84 L29.08,11.84 L29.08,16.3 Z M33.36,16.3 L35.82,16.3 L35.82,11.84 L33.36,11.84 L33.36,16.3 Z M29.08,10.14 L31.5,10.14 L31.5,5.82 L29.08,5.82 L29.08,10.14 Z M33.36,5.82 L33.36,10.14 L35.82,10.14 L35.82,5.82 L33.36,5.82 Z M24.52,9.42 L24.52,19 L22.72,19 L22.72,9.68 C22.12,11.42 21.36,13.02 20.44,14.46 L19.62,12.4 C21.02,10.58 22.02,8.5 22.66,6.18 L20.24,6.18 L20.24,4.36 L22.72,4.36 L22.72,0.6 L24.52,0.6 L24.52,4.36 L26.56,4.36 L26.56,6.18 L24.52,6.18 L24.52,7.36 C25.32,8.28 26.14,9.32 26.96,10.44 L25.94,11.96 C25.4,10.94 24.92,10.1 24.52,9.42 Z M48.06,3.82 L41.36,3.82 L41.36,2 L56.7,2 L56.7,3.82 L49.98,3.82 L49.98,15.98 L57.96,15.98 L57.96,17.82 L40.06,17.82 L40.06,15.98 L48.06,15.98 L48.06,3.82 Z M68.88,5.12 C67.96,7.04 66.92,8.7 65.78,10.1 L64.42,8.46 C66.08,6.52 67.5,3.84 68.66,0.44 L70.58,0.86 C70.3,1.7 70,2.5 69.7,3.26 L77.94,3.26 L77.94,5.12 L71.52,5.12 L71.52,7.98 L77.14,7.98 L77.14,9.82 L71.52,9.82 L71.52,12.76 L77.18,12.76 L77.18,14.58 L71.52,14.58 L71.52,19.1 L69.6,19.1 L69.6,5.12 L68.88,5.12 Z M62.06,8.42 C61.5,9.1 60.88,9.78 60.24,10.44 L59.6,8.4 C61.66,6.14 63.18,3.5 64.16,0.5 L65.96,1.34 C65.44,2.86 64.78,4.3 63.98,5.66 L63.98,19.1 L62.06,19.1 L62.06,8.42 Z M82.24,6.48 L80.42,6.48 L80.42,2.32 L87.98,2.32 C87.7,1.76 87.4,1.26 87.06,0.78 L89.18,0.42 C89.48,1 89.76,1.64 90.04,2.32 L97.58,2.32 L97.58,6.48 L95.76,6.48 L95.76,7.34 L92.72,7.34 C94.2,8.54 95.46,9.74 96.5,10.92 L95.1,12.34 C94.74,11.86 94.34,11.36 93.9,10.88 L89.96,11.18 L89.96,13.02 L96.18,13.02 L96.18,14.76 L89.96,14.76 L89.96,16.8 L97.74,16.8 L97.74,18.58 L80.26,18.58 L80.26,16.8 L88.04,16.8 L88.04,14.76 L81.86,14.76 L81.86,13.02 L88.04,13.02 L88.04,11.3 C86.24,11.38 84.4,11.48 82.52,11.56 L82.1,9.92 C82.26,9.88 82.4,9.82 82.5,9.76 C83.18,9.44 84.06,8.64 85.16,7.34 L82.24,7.34 L82.24,6.48 Z M87.32,7.34 C86.52,8.42 85.82,9.26 85.18,9.86 C87.62,9.76 90.06,9.62 92.5,9.44 C92.08,9.02 91.64,8.6 91.16,8.2 L92.04,7.34 L87.32,7.34 Z M95.64,5.62 L95.64,4.12 L82.36,4.12 L82.36,5.62 L95.64,5.62 Z" id="青柚工作室" fill="#3E683A"></path>
                            <path d="M6.018,24.536 C7.422,24.536 8.54,24.991 9.359,25.914 C10.139,26.785 10.529,27.942 10.529,29.372 C10.529,30.763 10.152,31.894 9.398,32.778 C9.736,33.233 10.087,33.701 10.425,34.195 L9.515,35.001 C9.164,34.494 8.826,34.013 8.488,33.558 C7.799,33.974 6.98,34.182 6.018,34.182 C4.601,34.182 3.483,33.714 2.677,32.804 C1.897,31.92 1.52,30.776 1.52,29.372 C1.52,27.955 1.897,26.811 2.677,25.927 C3.483,24.991 4.601,24.536 6.018,24.536 Z M6.018,25.784 C5.03,25.784 4.263,26.109 3.717,26.785 C3.197,27.422 2.937,28.28 2.937,29.372 C2.937,30.451 3.197,31.309 3.717,31.946 C4.263,32.596 5.03,32.934 6.018,32.934 C6.668,32.934 7.227,32.791 7.682,32.518 C7.214,31.933 6.746,31.4 6.291,30.919 L7.11,30.113 C7.578,30.607 8.046,31.14 8.514,31.686 C8.904,31.088 9.099,30.321 9.099,29.372 C9.099,28.254 8.826,27.383 8.306,26.746 C7.773,26.096 7.006,25.784 6.018,25.784 Z M12.804,24.588 C13.077,24.588 13.311,24.666 13.493,24.848 C13.675,25.017 13.766,25.238 13.766,25.511 C13.766,25.784 13.662,26.005 13.48,26.187 C13.298,26.356 13.064,26.447 12.804,26.447 C12.531,26.447 12.31,26.356 12.128,26.187 C11.946,26.005 11.855,25.771 11.855,25.511 C11.855,25.238 11.946,25.017 12.128,24.848 C12.31,24.666 12.531,24.588 12.804,24.588 Z M12.115,27.279 L13.493,27.279 L13.493,34 L12.115,34 L12.115,27.279 Z M18.758,27.097 C20.422,27.097 21.267,28.007 21.267,29.853 L21.267,34 L19.889,34 L19.889,29.97 C19.889,28.826 19.356,28.254 18.316,28.254 C17.926,28.254 17.575,28.384 17.289,28.67 C16.977,28.982 16.782,29.411 16.73,29.957 L16.73,34 L15.352,34 L15.352,27.279 L16.73,27.279 L16.73,28.111 C16.99,27.773 17.289,27.526 17.627,27.357 C17.965,27.175 18.342,27.097 18.758,27.097 Z M25.635,27.097 C26.519,27.097 27.195,27.448 27.689,28.176 L27.689,27.279 L29.067,27.279 L29.067,33.558 C29.067,35.69 28.014,36.756 25.934,36.756 C24.998,36.756 24.283,36.574 23.789,36.223 C23.295,35.859 22.996,35.313 22.866,34.572 L24.244,34.572 C24.322,34.962 24.478,35.248 24.738,35.417 C24.985,35.573 25.388,35.664 25.934,35.664 C27.104,35.664 27.689,35.027 27.689,33.766 L27.689,32.726 C27.195,33.467 26.519,33.844 25.635,33.844 C24.725,33.844 23.984,33.532 23.425,32.921 C22.853,32.31 22.58,31.504 22.58,30.49 C22.58,29.476 22.853,28.67 23.425,28.046 C23.984,27.409 24.725,27.097 25.635,27.097 Z M25.843,28.215 C25.258,28.215 24.803,28.41 24.491,28.826 C24.153,29.216 23.997,29.775 23.997,30.49 C23.997,31.14 24.127,31.66 24.387,32.037 C24.686,32.479 25.167,32.713 25.843,32.713 C26.428,32.713 26.883,32.518 27.221,32.128 C27.533,31.725 27.702,31.179 27.702,30.49 C27.702,29.788 27.533,29.229 27.221,28.826 C26.883,28.41 26.428,28.215 25.843,28.215 Z M29.912,24.718 L31.615,24.718 L34.293,28.969 L36.971,24.718 L38.674,24.718 L34.995,30.295 L34.995,34 L33.591,34 L33.591,30.295 L29.912,24.718 Z M42.613,27.097 C43.627,27.097 44.446,27.435 45.057,28.111 C45.655,28.774 45.967,29.619 45.967,30.646 C45.967,31.66 45.668,32.505 45.07,33.155 C44.446,33.831 43.627,34.182 42.613,34.182 C41.599,34.182 40.78,33.831 40.156,33.155 C39.558,32.505 39.259,31.66 39.259,30.646 C39.259,29.619 39.558,28.774 40.169,28.111 C40.78,27.435 41.599,27.097 42.613,27.097 Z M42.613,28.228 C41.976,28.228 41.482,28.475 41.131,28.982 C40.819,29.411 40.676,29.97 40.676,30.646 C40.676,31.322 40.819,31.868 41.131,32.297 C41.482,32.791 41.976,33.051 42.613,33.051 C43.25,33.051 43.744,32.791 44.108,32.297 C44.42,31.855 44.576,31.309 44.576,30.646 C44.576,29.97 44.42,29.411 44.108,28.982 C43.744,28.475 43.25,28.228 42.613,28.228 Z M47.28,27.279 L48.658,27.279 L48.658,31.374 C48.658,31.946 48.775,32.362 49.022,32.622 C49.256,32.882 49.646,33.025 50.179,33.025 C50.543,33.025 50.868,32.869 51.18,32.583 C51.492,32.284 51.713,31.881 51.83,31.387 L51.83,27.279 L53.208,27.279 L53.208,34 L51.83,34 L51.83,33.09 C51.258,33.818 50.556,34.182 49.711,34.182 C48.086,34.182 47.28,33.272 47.28,31.465 L47.28,27.279 Z M62.49,24.536 C63.569,24.536 64.414,24.757 65.025,25.225 C65.675,25.706 66.039,26.447 66.13,27.461 L64.726,27.461 C64.596,26.863 64.362,26.421 63.998,26.161 C63.634,25.888 63.114,25.758 62.412,25.758 C61.801,25.758 61.333,25.849 61.008,26.031 C60.605,26.239 60.41,26.577 60.41,27.045 C60.41,27.461 60.631,27.786 61.099,28.033 C61.307,28.15 61.84,28.345 62.711,28.605 C63.959,28.995 64.778,29.294 65.142,29.515 C65.935,29.996 66.338,30.659 66.338,31.517 C66.338,32.349 66.013,32.999 65.363,33.48 C64.713,33.948 63.803,34.182 62.633,34.182 C61.502,34.182 60.618,33.948 59.981,33.506 C59.214,32.96 58.798,32.102 58.72,30.932 L60.124,30.932 C60.228,31.66 60.488,32.193 60.904,32.505 C61.281,32.791 61.853,32.934 62.633,32.934 C63.335,32.934 63.894,32.804 64.31,32.57 C64.726,32.336 64.934,32.011 64.934,31.595 C64.934,31.075 64.635,30.672 64.05,30.373 C63.842,30.269 63.231,30.061 62.204,29.749 C61.06,29.385 60.358,29.138 60.072,28.982 C59.357,28.553 59.006,27.929 59.006,27.123 C59.006,26.304 59.344,25.667 60.033,25.199 C60.683,24.757 61.502,24.536 62.49,24.536 Z M69.562,25.108 L69.562,27.279 L71.096,27.279 L71.096,28.423 L69.562,28.423 L69.562,32.323 C69.562,32.505 69.601,32.635 69.679,32.726 C69.757,32.804 69.874,32.856 70.043,32.856 L70.927,32.856 L70.927,34 L69.822,34 C69.25,34 68.821,33.844 68.561,33.545 C68.301,33.259 68.184,32.856 68.184,32.323 L68.184,28.423 L66.936,28.423 L66.936,27.279 L68.184,27.279 L68.184,25.68 L69.562,25.108 Z M72.201,27.279 L73.579,27.279 L73.579,31.374 C73.579,31.946 73.696,32.362 73.943,32.622 C74.177,32.882 74.567,33.025 75.1,33.025 C75.464,33.025 75.789,32.869 76.101,32.583 C76.413,32.284 76.634,31.881 76.751,31.387 L76.751,27.279 L78.129,27.279 L78.129,34 L76.751,34 L76.751,33.09 C76.179,33.818 75.477,34.182 74.632,34.182 C73.007,34.182 72.201,33.272 72.201,31.465 L72.201,27.279 Z M84.538,24.536 L85.916,24.536 L85.916,34 L84.629,34 L84.629,33.194 C84.161,33.844 83.459,34.182 82.549,34.182 C81.561,34.182 80.781,33.831 80.222,33.129 C79.702,32.479 79.442,31.634 79.442,30.607 C79.442,29.619 79.689,28.8 80.209,28.15 C80.755,27.448 81.522,27.097 82.484,27.097 C83.303,27.097 83.992,27.487 84.538,28.28 L84.538,24.536 Z M82.796,28.215 C82.12,28.215 81.613,28.436 81.288,28.904 C81.002,29.294 80.859,29.866 80.859,30.607 C80.859,31.348 80.989,31.92 81.262,32.336 C81.574,32.817 82.081,33.064 82.757,33.064 C83.355,33.064 83.81,32.817 84.148,32.349 C84.434,31.92 84.577,31.374 84.577,30.698 L84.577,30.581 C84.577,29.853 84.395,29.268 84.057,28.826 C83.719,28.41 83.303,28.215 82.796,28.215 Z M88.451,24.588 C88.724,24.588 88.958,24.666 89.14,24.848 C89.322,25.017 89.413,25.238 89.413,25.511 C89.413,25.784 89.309,26.005 89.127,26.187 C88.945,26.356 88.711,26.447 88.451,26.447 C88.178,26.447 87.957,26.356 87.775,26.187 C87.593,26.005 87.502,25.771 87.502,25.511 C87.502,25.238 87.593,25.017 87.775,24.848 C87.957,24.666 88.178,24.588 88.451,24.588 Z M87.762,27.279 L89.14,27.279 L89.14,34 L87.762,34 L87.762,27.279 Z M94.093,27.097 C95.107,27.097 95.926,27.435 96.537,28.111 C97.135,28.774 97.447,29.619 97.447,30.646 C97.447,31.66 97.148,32.505 96.55,33.155 C95.926,33.831 95.107,34.182 94.093,34.182 C93.079,34.182 92.26,33.831 91.636,33.155 C91.038,32.505 90.739,31.66 90.739,30.646 C90.739,29.619 91.038,28.774 91.649,28.111 C92.26,27.435 93.079,27.097 94.093,27.097 Z M94.093,28.228 C93.456,28.228 92.962,28.475 92.611,28.982 C92.299,29.411 92.156,29.97 92.156,30.646 C92.156,31.322 92.299,31.868 92.611,32.297 C92.962,32.791 93.456,33.051 94.093,33.051 C94.73,33.051 95.224,32.791 95.588,32.297 C95.9,31.855 96.056,31.309 96.056,30.646 C96.056,29.97 95.9,29.411 95.588,28.982 C95.224,28.475 94.73,28.228 94.093,28.228 Z" id="QingYou-Studio" fill="#22B574"></path>
                        </g>
                    </g>
                </g>
            </g>
        </g>
    </g>
</svg>