<?xml version="1.0" encoding="UTF-8"?>
<svg width="1440px" height="861px" viewBox="0 0 1440 861" version="1.1" xmlns="http://www.w3.org/2000/svg" xmlns:xlink="http://www.w3.org/1999/xlink">
    <!-- Generator: Sketch 52.2 (67145) - http://www.bohemiancoding.com/sketch -->
    <title>Desktop HD</title>
    <desc>Created with Sketch.</desc>
    <g id="Page-1" stroke="none" stroke-width="1" fill="none" fill-rule="evenodd" stroke-opacity="0.25">
        <g id="Desktop-HD" transform="translate(-1.000000, -931.000000)" stroke="#22B574">
            <g id="wave-line_2" transform="translate(-480.000000, 931.000000)">
                <g id="Group-11">
                    <path d="M480,0 C946.666667,86.6666667 1180,196.666667 1180,330 C1180,463.333333 946.666667,565.666667 480,637 L480,0 Z" id="Path-3"></path>
                    <path d="M338,0 C804.666667,86.6666667 1038,196.666667 1038,330 C1038,463.333333 804.666667,565.666667 338,637 L338,0 Z" id="Path-3-Copy"></path>
                    <path d="M175,0 C641.666667,86.6666667 875,196.666667 875,330 C875,463.333333 641.666667,565.666667 175,637 L175,0 Z" id="Path-3-Copy-2"></path>
                    <path d="M0,0 C466.666667,86.6666667 700,196.666667 700,330 C700,463.333333 466.666667,565.666667 0,637 L0,0 Z" id="Path-3-Copy-3"></path>
                </g>
                <g id="Group-11-Copy" transform="translate(1810.000000, 503.500000) scale(-1, 1) translate(-1810.000000, -503.500000) translate(1220.000000, 185.000000)">
                    <path d="M480,0 C946.666667,86.6666667 1180,196.666667 1180,330 C1180,463.333333 946.666667,565.666667 480,637 L480,0 Z" id="Path-3"></path>
                    <path d="M338,0 C804.666667,86.6666667 1038,196.666667 1038,330 C1038,463.333333 804.666667,565.666667 338,637 L338,0 Z" id="Path-3-Copy"></path>
                    <path d="M175,0 C641.666667,86.6666667 875,196.666667 875,330 C875,463.333333 641.666667,565.666667 175,637 L175,0 Z" id="Path-3-Copy-2"></path>
                    <path d="M0,0 C466.666667,86.6666667 700,196.666667 700,330 C700,463.333333 466.666667,565.666667 0,637 L0,0 Z" id="Path-3-Copy-3"></path>
                </g>
            </g>
        </g>
    </g>
</svg>