<?xml version="1.0" encoding="UTF-8"?>
<svg width="1440px" height="1068px" viewBox="0 0 1440 1068" version="1.1" xmlns="http://www.w3.org/2000/svg" xmlns:xlink="http://www.w3.org/1999/xlink">
    <!-- Generator: Sketch 52.2 (67145) - http://www.bohemiancoding.com/sketch -->
    <title>Desktop HD</title>
    <desc>Created with Sketch.</desc>
    <g id="Page-1" stroke="none" stroke-width="1" fill="none" fill-rule="evenodd" stroke-opacity="0.25">
        <g id="Desktop-HD" transform="translate(0.000000, -1663.000000)" stroke="#22B574">
            <g id="wave-line_3" transform="translate(-109.000000, 1663.000000)">
                <path d="M0,211 C55.3333333,363.666667 117,450.666667 185,472 C287,504 524,542 564,617 C604,692 844,763 894,822 C944,881 899,1015 1024,1058 C1149,1101 1522,989 1545,915" id="Path-4"></path>
                <path d="M29,108 C84.3333333,260.666667 146,347.666667 214,369 C316,401 553,439 593,514 C633,589 873,660 923,719 C973,778 928,912 1053,955 C1178,998 1551,886 1574,812" id="Path-4-Copy"></path>
                <path d="M29,23 C84.3333333,175.666667 146,262.666667 214,284 C316,316 553,354 593,429 C633,504 873,575 923,634 C973,693 928,827 1053,870 C1178,913 1551,801 1574,727" id="Path-4-Copy-2"></path>
                <path d="M29,-5.68434189e-14 C90.9231931,135.734263 159.933981,213.085012 236.032362,232.052245 C350.179935,260.503095 615.405178,294.288479 660.168932,360.970159 C704.932686,427.651838 973.51521,490.777162 1029.4699,543.233416 C1085.4246,595.689671 1035.06537,714.827605 1174.9521,753.058435 C1314.83883,791.289264 1732.26084,691.71129 1758,625.918699" id="Path-4-Copy-3"></path>
            </g>
        </g>
    </g>
</svg>